<svg xmlns="http://www.w3.org/2000/svg" xmlns:cc="http://web.resource.org/cc/" xmlns:ns1="http://sozi.baierouge.fr" xmlns:svg="http://www.w3.org/2000/svg" xmlns:xlink="http://www.w3.org/1999/xlink" enable-background="new 0 0 751.534 463.48" overflow="visible" space="preserve" viewBox="0 0 751.534 463.48"><switch><g><g id="Layer_1"><g><path fill="#00A7B3" d="m749.62 354.91c0 59.962-167.81 108.57-374.81 108.57s-374.81-48.61-374.81-108.57 167.81-108.57 374.81-108.57c207 0 374.81 48.61 374.81 108.57z"/><path fill="#00A8B3" d="m374.84 463.27c-207 0-374.81-48.608-374.81-108.57s167.81-108.57 374.81-108.57 374.81 48.609 374.81 108.57-167.81 108.57-374.81 108.57z"/><path fill="#00A9B4" d="m374.87 463.06c-207 0-374.81-48.608-374.81-108.57s167.81-108.57 374.81-108.57c207 0 374.81 48.609 374.81 108.57s-167.81 108.57-374.81 108.57z"/><path fill="#00AAB4" d="m374.9 462.85c-207 0-374.81-48.608-374.81-108.57s167.81-108.57 374.81-108.57c207 0 374.81 48.609 374.81 108.57s-167.81 108.57-374.81 108.57z"/><path fill="#00ABB4" d="m374.93 462.64c-207 0-374.81-48.608-374.81-108.57s167.81-108.57 374.81-108.57c207 0 374.81 48.609 374.81 108.57s-167.81 108.57-374.81 108.57z"/><path fill="#00ACB4" d="m374.96 462.43c-207 0-374.81-48.607-374.81-108.57s167.81-108.57 374.81-108.57c207 0 374.81 48.61 374.81 108.57s-167.81 108.57-374.81 108.57z"/><path fill="#00ADB5" d="m374.99 462.22c-207 0-374.81-48.608-374.81-108.57s167.81-108.57 374.81-108.57 374.81 48.61 374.81 108.57-167.81 108.57-374.81 108.57z"/><path fill="#00AEB5" d="m375.02 462.02c-207 0-374.81-48.608-374.81-108.57s167.81-108.58 374.81-108.58 374.81 48.609 374.81 108.57-167.81 108.58-374.81 108.58z"/><path fill="#00AFB5" d="m375.05 461.81c-207 0-374.81-48.608-374.81-108.57s167.81-108.58 374.81-108.58c207 0 374.81 48.61 374.81 108.57s-167.81 108.58-374.81 108.58z"/><path fill="#00B0B6" d="m375.08 461.6c-207 0-374.81-48.608-374.81-108.57s167.81-108.57 374.81-108.57c207 0 374.81 48.609 374.81 108.57s-167.81 108.57-374.81 108.57z"/><path fill="#00B1B6" d="m375.11 461.39c-207 0-374.81-48.608-374.81-108.57s167.81-108.57 374.81-108.57c207 0 374.81 48.609 374.81 108.57s-167.81 108.57-374.81 108.57z"/><path fill="#00B2B6" d="m375.14 461.18c-207 0-374.81-48.608-374.81-108.57s167.81-108.57 374.81-108.57c207 0 374.81 48.609 374.81 108.57s-167.81 108.57-374.81 108.57z"/><path fill="#00B3B6" d="m375.17 460.97c-207 0-374.81-48.608-374.81-108.57s167.81-108.57 374.81-108.57 374.81 48.609 374.81 108.57-167.81 108.57-374.81 108.57z"/><path fill="#00B4B7" d="m375.2 460.76c-207 0-374.81-48.608-374.81-108.57s167.81-108.57 374.81-108.57c207 0 374.81 48.609 374.81 108.57s-167.81 108.57-374.81 108.57z"/><path fill="#00B5B7" d="m375.23 460.55c-207 0-374.81-48.608-374.81-108.57s167.81-108.57 374.81-108.57c207 0 374.81 48.609 374.81 108.57s-167.81 108.57-374.81 108.57z"/><path fill="#00B6B7" d="m375.26 460.34c-207 0-374.81-48.607-374.81-108.57s167.81-108.57 374.81-108.57 374.81 48.61 374.81 108.57-167.81 108.57-374.81 108.57z"/><path fill="#00B7B8" d="m375.29 460.13c-207 0-374.81-48.608-374.81-108.57s167.81-108.57 374.81-108.57c207 0 374.81 48.609 374.81 108.57s-167.81 108.57-374.81 108.57z"/><path fill="#00B8B8" d="m375.32 459.92c-207 0-374.81-48.608-374.81-108.57s167.81-108.57 374.81-108.57 374.81 48.609 374.81 108.57-167.81 108.57-374.81 108.57z"/><path fill="#00B9B8" d="m375.35 459.71c-207 0-374.81-48.607-374.81-108.57s167.81-108.57 374.81-108.57c207 0 374.81 48.61 374.81 108.57s-167.81 108.57-374.81 108.57z"/><path fill="#00BAB8" d="m375.38 459.5c-207 0-374.81-48.608-374.81-108.57s167.81-108.57 374.81-108.57c207 0 374.81 48.609 374.81 108.57s-167.81 108.57-374.81 108.57z"/><path fill="#00BBB9" d="m375.41 459.3c-207 0-374.81-48.608-374.81-108.57s167.81-108.57 374.81-108.57 374.81 48.609 374.81 108.57-167.81 108.57-374.81 108.57z"/><path fill="#00BCB9" d="m375.44 459.08c-207 0-374.81-48.607-374.81-108.57s167.81-108.57 374.81-108.57c207 0 374.81 48.61 374.81 108.57s-167.81 108.57-374.81 108.57z"/><path fill="#00BDB9" d="m375.47 458.88c-207 0-374.81-48.608-374.81-108.57s167.81-108.57 374.81-108.57 374.81 48.609 374.81 108.57-167.81 108.57-374.81 108.57z"/><path fill="#00BEB9" d="m375.5 458.67c-207 0-374.81-48.608-374.81-108.57s167.81-108.57 374.81-108.57c207 0 374.81 48.609 374.81 108.57s-167.81 108.57-374.81 108.57z"/><path fill="#00BFBA" d="m375.53 458.46c-207 0-374.81-48.607-374.81-108.57s167.81-108.57 374.81-108.57c207 0 374.81 48.609 374.81 108.57s-167.81 108.57-374.81 108.57z"/><path fill="#00C0BA" d="m375.56 458.25c-207 0-374.81-48.607-374.81-108.57s167.81-108.57 374.81-108.57 374.81 48.61 374.81 108.57-167.81 108.57-374.81 108.57z"/><path fill="#00C1BA" d="m375.59 458.04c-207 0-374.81-48.608-374.81-108.57s167.81-108.57 374.81-108.57c207 0 374.81 48.609 374.81 108.57s-167.81 108.57-374.81 108.57z"/><path fill="#00C2BB" d="m375.62 457.83c-207 0-374.81-48.608-374.81-108.57s167.81-108.57 374.81-108.57 374.81 48.609 374.81 108.57-167.81 108.57-374.81 108.57z"/><path fill="#00C3BB" d="m375.65 457.62c-207 0-374.81-48.607-374.81-108.57s167.81-108.57 374.81-108.57 374.81 48.61 374.81 108.57-167.81 108.57-374.81 108.57z"/><path fill="#00C4BB" d="m375.68 457.41c-207 0-374.81-48.608-374.81-108.57s167.81-108.57 374.81-108.57c207 0 374.81 48.609 374.81 108.57s-167.81 108.57-374.81 108.57z"/><path fill="#00C5BB" d="m375.71 457.2c-207 0-374.81-48.608-374.81-108.57s167.81-108.57 374.81-108.57 374.81 48.609 374.81 108.57-167.81 108.57-374.81 108.57z"/><path fill="#00C6BC" d="m375.74 456.99c-207 0-374.81-48.607-374.81-108.57s167.81-108.57 374.81-108.57c207 0 374.81 48.61 374.81 108.57s-167.81 108.57-374.81 108.57z"/><path fill="#00C7BC" d="m375.77 456.78c-207 0-374.81-48.607-374.81-108.57 0-59.961 167.81-108.57 374.81-108.57s374.81 48.61 374.81 108.57c0 59.97-167.81 108.57-374.81 108.57z"/><path fill="#00C7BC" d="m375.8 456.57c-207 0-374.81-48.608-374.81-108.57s167.81-108.57 374.81-108.57 374.81 48.609 374.81 108.57-167.81 108.57-374.81 108.57z"/><path fill="#00C8BD" d="m375.83 456.36c-207 0-374.81-48.607-374.81-108.57s167.81-108.57 374.81-108.57c207 0 374.81 48.61 374.81 108.57s-167.81 108.57-374.81 108.57z"/><path fill="#00C9BD" d="m375.86 456.16c-207 0-374.81-48.607-374.81-108.57s167.81-108.57 374.81-108.57 374.81 48.61 374.81 108.57-167.81 108.57-374.81 108.57z"/><path fill="#00CABD" d="m375.89 455.95c-207 0-374.81-48.608-374.81-108.57s167.81-108.57 374.81-108.57c207 0 374.81 48.609 374.81 108.57s-167.81 108.57-374.81 108.57z"/><path fill="#00CBBD" d="m375.92 455.74c-207 0-374.81-48.607-374.81-108.57s167.81-108.57 374.81-108.57c207 0 374.81 48.61 374.81 108.57s-167.81 108.57-374.81 108.57z"/><path fill="#00CCBE" d="m375.95 455.53c-207 0-374.81-48.607-374.81-108.57s167.81-108.57 374.81-108.57 374.81 48.61 374.81 108.57-167.81 108.57-374.81 108.57z"/><path fill="#00CDBE" d="m375.98 455.32c-207 0-374.81-48.608-374.81-108.57s167.81-108.57 374.81-108.57c207 0 374.81 48.609 374.81 108.57s-167.81 108.57-374.81 108.57z"/><path fill="#00CEBE" d="m376.01 455.11c-207 0-374.81-48.608-374.81-108.57s167.81-108.57 374.81-108.57 374.81 48.61 374.81 108.57-167.81 108.57-374.81 108.57z"/><path fill="#00CFBF" d="m376.04 454.9c-207 0-374.81-48.607-374.81-108.57s167.81-108.57 374.81-108.57 374.81 48.61 374.81 108.57-167.81 108.57-374.81 108.57z"/><path fill="#00D0BF" d="m376.07 454.69c-207 0-374.81-48.607-374.81-108.57s167.81-108.57 374.81-108.57c207 0 374.81 48.61 374.81 108.57s-167.81 108.57-374.81 108.57z"/><path fill="#00D1BF" d="m376.1 454.48c-207 0-374.81-48.608-374.81-108.57s167.8-108.57 374.81-108.57 374.81 48.609 374.81 108.57-167.81 108.57-374.81 108.57z"/><path fill="#00D2BF" d="m376.13 454.27c-207 0-374.81-48.607-374.81-108.57s167.8-108.57 374.81-108.57c207 0 374.81 48.61 374.81 108.57s-167.81 108.57-374.81 108.57z"/><path fill="#00D3C0" d="m376.16 454.06c-207 0-374.81-48.607-374.81-108.57s167.81-108.57 374.81-108.57c207 0 374.81 48.61 374.81 108.57s-167.81 108.57-374.81 108.57z"/><path fill="#00D4C0" d="m376.19 453.85c-207 0-374.81-48.608-374.81-108.57s167.81-108.57 374.81-108.57 374.81 48.609 374.81 108.57-167.81 108.57-374.81 108.57z"/><path fill="#00D5C0" d="m376.22 453.64c-207 0-374.81-48.607-374.81-108.57s167.81-108.57 374.81-108.57c207 0 374.81 48.61 374.81 108.57s-167.81 108.57-374.81 108.57z"/><path fill="#00D6C1" d="m376.25 453.44c-207 0-374.81-48.607-374.81-108.57s167.81-108.57 374.81-108.57c207 0 374.81 48.61 374.81 108.57s-167.81 108.57-374.81 108.57z"/><path fill="#00D7C1" d="m376.28 453.23c-207 0-374.81-48.608-374.81-108.57s167.81-108.57 374.81-108.57c207 0 374.81 48.609 374.81 108.57s-167.81 108.57-374.81 108.57z"/><path fill="#00D8C1" d="m376.3 453.02c-207 0-374.81-48.607-374.81-108.57s167.81-108.57 374.81-108.57c207 0 374.81 48.61 374.81 108.57s-167.8 108.57-374.81 108.57z"/><path fill="#00D9C1" d="m376.34 452.81c-207 0-374.81-48.607-374.81-108.57s167.81-108.57 374.81-108.57 374.81 48.61 374.81 108.57-167.81 108.57-374.81 108.57z"/><path fill="#00DAC2" d="m376.36 452.6c-207 0-374.81-48.607-374.81-108.57s167.81-108.57 374.81-108.57c207 0 374.81 48.61 374.81 108.57s-167.8 108.57-374.81 108.57z"/><path fill="#00DBC2" d="m376.4 452.39c-207 0-374.81-48.607-374.81-108.57s167.81-108.57 374.81-108.57c207 0 374.81 48.61 374.81 108.57s-167.81 108.57-374.81 108.57z"/><path fill="#00DCC2" d="m376.42 452.18c-207 0-374.81-48.607-374.81-108.57s167.81-108.57 374.81-108.57 374.81 48.61 374.81 108.57-167.8 108.57-374.81 108.57z"/><path fill="#00DDC2" d="m376.46 451.97c-207 0-374.81-48.607-374.81-108.57s167.81-108.57 374.81-108.57c207 0 374.81 48.61 374.81 108.57s-167.81 108.57-374.81 108.57z"/><path fill="#00DEC3" d="m376.48 451.76c-207 0-374.81-48.607-374.81-108.57s167.81-108.57 374.81-108.57 374.81 48.609 374.81 108.57-167.8 108.57-374.81 108.57z"/><path fill="#00DFC3" d="m376.52 451.55c-207 0-374.81-48.607-374.81-108.57s167.81-108.57 374.81-108.57c207 0 374.81 48.61 374.81 108.57s-167.81 108.57-374.81 108.57z"/><path fill="#00E0C3" d="m376.54 451.34c-207 0-374.81-48.607-374.81-108.57s167.81-108.57 374.81-108.57c207 0 374.81 48.61 374.81 108.57s-167.81 108.57-374.81 108.57z"/><path fill="#00E1C4" d="m376.57 451.13c-207 0-374.81-48.608-374.81-108.57s167.81-108.57 374.81-108.57 374.81 48.609 374.81 108.57-167.8 108.57-374.81 108.57z"/><path fill="#00E2C4" d="m376.6 450.92c-207 0-374.81-48.607-374.81-108.57s167.81-108.57 374.81-108.57c207 0 374.81 48.61 374.81 108.57s-167.8 108.57-374.81 108.57z"/><path fill="#00E3C4" d="m376.63 450.71c-207 0-374.81-48.607-374.81-108.57s167.81-108.57 374.81-108.57 374.81 48.61 374.81 108.57-167.8 108.57-374.81 108.57z"/><path fill="#00E4C4" d="m376.66 450.5c-207 0-374.81-48.607-374.81-108.57s167.81-108.57 374.81-108.57 374.81 48.61 374.81 108.57-167.8 108.57-374.81 108.57z"/><path fill="#00E5C5" d="m376.69 450.3c-207 0-374.81-48.607-374.81-108.57s167.81-108.57 374.81-108.57c207 0 374.81 48.61 374.81 108.57s-167.8 108.57-374.81 108.57z"/><path fill="#00E6C5" d="m751.53 341.52c0 59.962-167.81 108.57-374.81 108.57s-374.81-48.61-374.81-108.57 167.81-108.57 374.81-108.57 374.81 48.61 374.81 108.57z"/></g><path fill="#00A7B3" d="m683.88 343.77c0 44.654-137.98 80.853-308.18 80.853s-308.18-36.198-308.18-80.853c0-44.652 137.98-80.853 308.18-80.853 170.21-0.01 308.18 36.19 308.18 80.85z"/><g><path fill="#F99" d="m665.52 317.59c0 40.053-128.93 72.523-287.98 72.523s-287.98-32.47-287.98-72.52c0-40.055 128.93-72.524 287.98-72.524s287.98 32.47 287.98 72.52z"/><path fill="#FF9A9A" d="m89.587 316.35c0-40.055 128.93-72.524 287.98-72.524s287.98 32.47 287.98 72.524c0 40.053-128.93 72.523-287.98 72.523s-287.98-32.47-287.98-72.52z"/><path fill="#FF9A9B" d="m89.616 315.1c0-40.055 128.93-72.524 287.98-72.524s287.98 32.47 287.98 72.524c0 40.053-128.93 72.523-287.98 72.523s-287.98-32.47-287.98-72.52z"/><path fill="#FF9B9C" d="m89.646 313.86c0-40.055 128.93-72.524 287.98-72.524s287.98 32.47 287.98 72.524c0 40.053-128.93 72.523-287.98 72.523s-287.98-32.47-287.98-72.52z"/><path fill="#FF9C9D" d="m89.674 312.61c0-40.055 128.93-72.524 287.98-72.524s287.98 32.47 287.98 72.524c0 40.053-128.93 72.523-287.98 72.523s-287.98-32.46-287.98-72.52z"/><path fill="#FF9C9E" d="m89.704 311.37c0-40.055 128.93-72.524 287.98-72.524s287.98 32.47 287.98 72.524c0 40.053-128.93 72.523-287.98 72.523s-287.98-32.47-287.98-72.52z"/><path fill="#FF9D9F" d="m89.733 310.12c0-40.055 128.93-72.524 287.98-72.524s287.98 32.47 287.98 72.524c0 40.053-128.93 72.523-287.98 72.523-159.04 0.01-287.98-32.46-287.98-72.52z"/><path fill="#FF9EA0" d="m89.762 308.88c0-40.055 128.93-72.524 287.98-72.524s287.98 32.47 287.98 72.524c0 40.053-128.93 72.523-287.98 72.523-159.04 0-287.98-32.47-287.98-72.52z"/><path fill="#FF9FA1" d="m89.791 307.64c0-40.055 128.93-72.524 287.98-72.524s287.98 32.47 287.98 72.524c0 40.053-128.93 72.523-287.98 72.523s-287.98-32.47-287.98-72.52z"/><path fill="#FF9FA2" d="m89.82 306.39c0-40.055 128.93-72.524 287.98-72.524s287.98 32.47 287.98 72.524c0 40.053-128.93 72.523-287.98 72.523s-287.98-32.47-287.98-72.52z"/><path fill="#FFA0A3" d="m89.849 305.15c0-40.055 128.93-72.524 287.98-72.524s287.98 32.47 287.98 72.524c0 40.053-128.93 72.523-287.98 72.523s-287.98-32.47-287.98-72.52z"/><path fill="#FFA1A4" d="m89.878 303.9c0-40.055 128.93-72.524 287.98-72.524s287.98 32.47 287.98 72.524c0 40.053-128.93 72.523-287.98 72.523-159.05 0.01-287.98-32.46-287.98-72.52z"/><path fill="#FFA1A5" d="m89.907 302.66c0-40.055 128.93-72.524 287.98-72.524s287.98 32.47 287.98 72.524c0 40.053-128.93 72.523-287.98 72.523s-287.98-32.47-287.98-72.52z"/><path fill="#FFA2A6" d="m89.937 301.42c0-40.055 128.93-72.524 287.98-72.524s287.98 32.47 287.98 72.524c0 40.053-128.93 72.523-287.98 72.523s-287.98-32.47-287.98-72.52z"/><path fill="#FFA3A7" d="m89.965 300.17c0-40.055 128.93-72.524 287.98-72.524s287.98 32.47 287.98 72.524c0 40.053-128.93 72.523-287.98 72.523s-287.98-32.47-287.98-72.52z"/><path fill="#FFA3A8" d="m89.995 298.93c0-40.055 128.93-72.524 287.98-72.524s287.98 32.47 287.98 72.524c0 40.053-128.93 72.523-287.98 72.523s-287.98-32.47-287.98-72.52z"/><path fill="#FFA4A9" d="m90.023 297.68c0-40.055 128.93-72.524 287.98-72.524s287.98 32.47 287.98 72.524c0 40.053-128.93 72.523-287.98 72.523-159.04 0.01-287.98-32.46-287.98-72.52z"/><path fill="#FFA5AA" d="m90.053 296.44c0-40.055 128.93-72.524 287.98-72.524s287.98 32.47 287.98 72.524c0 40.053-128.93 72.523-287.98 72.523-159.04 0-287.98-32.47-287.98-72.52z"/><path fill="#FFA6AB" d="m90.082 295.2c0-40.055 128.93-72.524 287.98-72.524s287.98 32.47 287.98 72.524c0 40.053-128.93 72.523-287.98 72.523s-287.98-32.47-287.98-72.52z"/><path fill="#FFA6AC" d="m90.111 293.95c0-40.055 128.93-72.524 287.98-72.524s287.98 32.47 287.98 72.524c0 40.053-128.93 72.523-287.98 72.523s-287.98-32.47-287.98-72.52z"/><path fill="#FFA7AD" d="m90.14 292.71c0-40.055 128.93-72.524 287.98-72.524s287.98 32.47 287.98 72.524c0 40.053-128.93 72.523-287.98 72.523s-287.98-32.47-287.98-72.52z"/><path fill="#FFA8AE" d="m90.169 291.46c0-40.055 128.93-72.524 287.98-72.524s287.98 32.47 287.98 72.524c0 40.053-128.93 72.523-287.98 72.523-159.05 0.01-287.98-32.46-287.98-72.52z"/><path fill="#FFA8AF" d="m90.198 290.22c0-40.055 128.93-72.524 287.98-72.524s287.98 32.47 287.98 72.524c0 40.053-128.93 72.523-287.98 72.523s-287.98-32.47-287.98-72.52z"/><path fill="#FFA9B0" d="m90.228 288.98c0-40.055 128.93-72.524 287.98-72.524s287.98 32.47 287.98 72.524c0 40.053-128.93 72.523-287.98 72.523s-287.98-32.47-287.98-72.52z"/><path fill="#FFAAB1" d="m90.256 287.73c0-40.055 128.93-72.524 287.98-72.524s287.98 32.47 287.98 72.524c0 40.053-128.93 72.523-287.98 72.523s-287.98-32.47-287.98-72.52z"/><path fill="#FFAAB2" d="m90.286 286.49c0-40.055 128.93-72.524 287.98-72.524s287.98 32.47 287.98 72.524c0 40.053-128.93 72.523-287.98 72.523s-287.98-32.47-287.98-72.52z"/><path fill="#FFABB3" d="m90.314 285.24c0-40.055 128.93-72.524 287.98-72.524s287.98 32.47 287.98 72.524c0 40.053-128.93 72.523-287.98 72.523-159.04 0.01-287.98-32.46-287.98-72.52z"/><path fill="#FFACB4" d="m90.344 284c0-40.055 128.93-72.524 287.98-72.524s287.98 32.47 287.98 72.524c0 40.053-128.93 72.523-287.98 72.523s-287.98-32.47-287.98-72.52z"/><path fill="#FFADB5" d="m90.373 282.75c0-40.055 128.93-72.524 287.98-72.524s287.98 32.47 287.98 72.524c0 40.053-128.93 72.523-287.98 72.523s-287.98-32.46-287.98-72.52z"/><path fill="#FFADB6" d="m90.402 281.51c0-40.055 128.93-72.524 287.98-72.524s287.98 32.47 287.98 72.524c0 40.053-128.93 72.523-287.98 72.523s-287.98-32.47-287.98-72.52z"/><path fill="#FFAEB7" d="m90.431 280.27c0-40.055 128.93-72.524 287.98-72.524s287.98 32.47 287.98 72.524c0 40.053-128.93 72.523-287.98 72.523s-287.98-32.47-287.98-72.52z"/><path fill="#FFAFB8" d="m90.46 279.02c0-40.055 128.93-72.524 287.98-72.524s287.98 32.47 287.98 72.524c0 40.053-128.93 72.523-287.98 72.523s-287.98-32.47-287.98-72.52z"/><path fill="#FFAFB8" d="m90.489 277.78c0-40.054 128.93-72.523 287.98-72.523s287.98 32.47 287.98 72.523-128.93 72.524-287.98 72.524-287.98-32.47-287.98-72.52z"/><path fill="#FFB0B9" d="m90.518 276.53c0-40.054 128.93-72.523 287.98-72.523s287.98 32.47 287.98 72.523-128.93 72.524-287.98 72.524-287.98-32.46-287.98-72.52z"/><path fill="#FFB1BA" d="m90.547 275.29c0-40.054 128.93-72.523 287.98-72.523s287.98 32.47 287.98 72.523-128.93 72.524-287.98 72.524c-159.05 0-287.98-32.47-287.98-72.52z"/><path fill="#FFB1BB" d="m90.577 274.04c0-40.054 128.93-72.523 287.98-72.523s287.98 32.47 287.98 72.523-128.93 72.524-287.98 72.524c-159.05 0.01-287.98-32.46-287.98-72.52z"/><path fill="#FFB2BC" d="m90.605 272.8c0-40.054 128.93-72.524 287.98-72.524s287.98 32.47 287.98 72.524-128.93 72.524-287.98 72.524c-159.04 0-287.98-32.47-287.98-72.52z"/><path fill="#FFB3BD" d="m90.635 271.56c0-40.054 128.93-72.524 287.98-72.524s287.98 32.47 287.98 72.524-128.93 72.524-287.98 72.524-287.98-32.47-287.98-72.52z"/><path fill="#FFB4BE" d="m90.664 270.31c0-40.054 128.93-72.524 287.98-72.524s287.98 32.47 287.98 72.524-128.93 72.524-287.98 72.524-287.98-32.47-287.98-72.52z"/><path fill="#FFB4BF" d="m90.693 269.07c0-40.054 128.93-72.524 287.98-72.524s287.98 32.47 287.98 72.524-128.93 72.524-287.98 72.524c-159.04 0-287.98-32.47-287.98-72.52z"/><path fill="#FFB5C0" d="m90.722 267.82c0-40.054 128.93-72.524 287.98-72.524s287.98 32.47 287.98 72.524-128.93 72.524-287.98 72.524c-159.04 0.01-287.98-32.46-287.98-72.52z"/><path fill="#FFB6C1" d="m90.751 266.58c0-40.054 128.93-72.524 287.98-72.524s287.98 32.47 287.98 72.524-128.93 72.524-287.98 72.524c-159.05 0-287.98-32.47-287.98-72.52z"/><path fill="#FFB6C2" d="m90.78 265.34c0-40.054 128.93-72.524 287.98-72.524s287.98 32.47 287.98 72.524-128.93 72.524-287.98 72.524-287.98-32.47-287.98-72.52z"/><path fill="#FFB7C3" d="m90.809 264.09c0-40.054 128.93-72.524 287.98-72.524s287.98 32.47 287.98 72.524-128.93 72.524-287.98 72.524-287.98-32.47-287.98-72.52z"/><path fill="#FFB8C4" d="m90.838 262.85c0-40.054 128.93-72.524 287.98-72.524s287.98 32.47 287.98 72.524-128.93 72.524-287.98 72.524c-159.05 0-287.98-32.47-287.98-72.52z"/><path fill="#FFB8C5" d="m90.867 261.6c0-40.054 128.93-72.524 287.98-72.524s287.98 32.47 287.98 72.524-128.93 72.524-287.98 72.524c-159.05 0.01-287.98-32.46-287.98-72.52z"/><path fill="#FFB9C6" d="m90.896 260.36c0-40.054 128.93-72.524 287.98-72.524s287.98 32.47 287.98 72.524-128.93 72.524-287.98 72.524c-159.05 0-287.98-32.47-287.98-72.52z"/><path fill="#FFBAC7" d="m90.926 259.11c0-40.054 128.93-72.524 287.98-72.524s287.98 32.47 287.98 72.524-128.93 72.524-287.98 72.524-287.98-32.46-287.98-72.52z"/><path fill="#FFBBC8" d="m90.955 257.87c0-40.054 128.93-72.524 287.98-72.524s287.98 32.47 287.98 72.524-128.93 72.524-287.98 72.524c-159.05 0.01-287.98-32.47-287.98-72.52z"/><path fill="#FFBBC9" d="m90.984 256.63c0-40.054 128.93-72.524 287.98-72.524s287.98 32.47 287.98 72.524-128.93 72.52-287.98 72.52c-159.04 0-287.98-32.47-287.98-72.52z"/><path fill="#FFBCCA" d="m91.013 255.38c0-40.054 128.93-72.524 287.98-72.524s287.98 32.47 287.98 72.524-128.93 72.524-287.98 72.524c-159.04 0.01-287.98-32.46-287.98-72.52z"/><path fill="#FFBDCB" d="m91.042 254.14c0-40.054 128.93-72.524 287.98-72.524s287.98 32.47 287.98 72.524-128.93 72.524-287.98 72.524-287.98-32.47-287.98-72.52z"/><path fill="#FFBDCC" d="m91.071 252.89c0-40.054 128.93-72.524 287.98-72.524s287.98 32.47 287.98 72.524-128.93 72.524-287.98 72.524-287.98-32.46-287.98-72.52z"/><path fill="#FFBECD" d="m91.1 251.65c0-40.054 128.93-72.524 287.98-72.524s287.98 32.47 287.98 72.524-128.93 72.524-287.98 72.524c-159.05 0-287.98-32.47-287.98-72.52z"/><path fill="#FFBFCE" d="m91.129 250.4c0-40.054 128.93-72.524 287.98-72.524s287.98 32.47 287.98 72.524-128.93 72.53-287.98 72.53c-159.05 0-287.98-32.47-287.98-72.53z"/><path fill="#FFBFCF" d="m91.158 249.16c0-40.054 128.93-72.524 287.98-72.524s287.98 32.47 287.98 72.524-128.93 72.524-287.98 72.524c-159.05 0.01-287.98-32.46-287.98-72.52z"/><path fill="#FFC0D0" d="m91.188 247.92c0-40.054 128.93-72.524 287.98-72.524s287.98 32.47 287.98 72.524-128.93 72.524-287.98 72.524-287.98-32.47-287.98-72.52z"/><path fill="#FFC1D1" d="m91.216 246.67c0-40.054 128.93-72.524 287.98-72.524s287.98 32.47 287.98 72.524-128.93 72.524-287.98 72.524-287.98-32.46-287.98-72.52z"/><path fill="#FFC2D2" d="m91.246 245.43c0-40.054 128.93-72.524 287.98-72.524s287.98 32.47 287.98 72.524-128.93 72.524-287.98 72.524c-159.05 0-287.98-32.47-287.98-72.52z"/><path fill="#FFC2D3" d="m91.275 244.18c0-40.054 128.93-72.524 287.98-72.524s287.98 32.47 287.98 72.524-128.93 72.524-287.98 72.524c-159.05 0.01-287.98-32.46-287.98-72.52z"/><path fill="#FFC3D4" d="m91.304 242.94c0-40.054 128.93-72.524 287.98-72.524s287.98 32.47 287.98 72.524-128.93 72.524-287.98 72.524c-159.04 0-287.98-32.47-287.98-72.52z"/><path fill="#FFC4D5" d="m91.333 241.7c0-40.054 128.93-72.524 287.98-72.524s287.98 32.47 287.98 72.524-128.93 72.524-287.98 72.524-287.98-32.47-287.98-72.52z"/><path fill="#FFC4D6" d="m91.362 240.45c0-40.054 128.93-72.524 287.98-72.524s287.98 32.47 287.98 72.524-128.93 72.524-287.98 72.524c-159.04 0.01-287.98-32.46-287.98-72.52z"/><path fill="#FFC5D7" d="m667.35 239.21c0 40.054-128.93 72.524-287.98 72.524s-287.98-32.471-287.98-72.524 128.93-72.524 287.98-72.524c159.05-0.01 287.98 32.47 287.98 72.52z"/></g><g><path fill="#900" d="m670.01 216.81c0 44.302-129.11 80.217-288.37 80.217s-288.37-35.915-288.37-80.217c0-44.303 129.11-80.217 288.37-80.217 159.26 0.01 288.37 35.92 288.37 80.22z"/><path fill="#9A0000" d="m381.63 296.78c-159.26 0-288.37-35.915-288.37-80.217 0-44.303 129.11-80.218 288.37-80.218s288.37 35.915 288.37 80.218c0 44.3-129.1 80.22-288.37 80.22z"/><path fill="#9B0000" d="m381.63 296.52c-159.26 0-288.37-35.916-288.37-80.218 0-44.303 129.11-80.217 288.37-80.217s288.37 35.914 288.37 80.217c0 44.3-129.11 80.22-288.37 80.22z"/><path fill="#9C0000" d="m381.62 296.26c-159.26 0-288.37-35.915-288.37-80.217 0-44.303 129.11-80.217 288.37-80.217s288.37 35.914 288.37 80.217c0 44.31-129.1 80.22-288.37 80.22z"/><path fill="#9D0000" d="m381.62 296.01c-159.26 0-288.37-35.915-288.37-80.217 0-44.303 129.11-80.217 288.37-80.217s288.37 35.914 288.37 80.217c0 44.31-129.11 80.22-288.37 80.22z"/><path fill="#9E0000" d="m381.62 295.76c-159.26 0-288.37-35.915-288.37-80.217 0-44.304 129.11-80.218 288.37-80.218s288.37 35.914 288.37 80.218c-0.01 44.3-129.11 80.22-288.37 80.22z"/><path fill="#9F0000" d="m381.61 295.5c-159.26 0-288.37-35.915-288.37-80.217 0-44.303 129.11-80.217 288.37-80.217s288.37 35.914 288.37 80.217c0 44.3-129.11 80.22-288.37 80.22z"/><path fill="#A00000" d="m381.61 295.24c-159.26 0-288.37-35.915-288.37-80.217 0-44.303 129.11-80.217 288.37-80.217s288.37 35.914 288.37 80.217c0 44.31-129.11 80.22-288.37 80.22z"/><path fill="#A10000" d="m381.6 294.99c-159.26 0-288.37-35.915-288.37-80.217 0-44.303 129.11-80.217 288.37-80.217s288.37 35.914 288.37 80.217c0 44.3-129.11 80.22-288.37 80.22z"/><path fill="#A20000" d="m381.6 294.73c-159.26 0-288.37-35.915-288.37-80.217 0-44.304 129.11-80.218 288.37-80.218s288.37 35.914 288.37 80.218c0 44.31-129.11 80.22-288.37 80.22z"/><path fill="#A30000" d="m381.59 294.48c-159.26 0-288.37-35.915-288.37-80.217 0-44.303 129.11-80.217 288.37-80.217s288.37 35.915 288.37 80.217c0 44.3-129.11 80.22-288.37 80.22z"/><path fill="#A40000" d="m381.59 294.22c-159.26 0-288.37-35.915-288.37-80.217 0-44.303 129.11-80.217 288.37-80.217s288.37 35.914 288.37 80.217c0 44.31-129.11 80.22-288.37 80.22z"/><path fill="#A50000" d="m381.58 293.97c-159.26 0-288.37-35.915-288.37-80.217 0-44.304 129.11-80.218 288.37-80.218s288.37 35.914 288.37 80.218c0 44.3-129.11 80.22-288.37 80.22z"/><path fill="#A60000" d="m381.58 293.71c-159.26 0-288.37-35.916-288.37-80.218 0-44.303 129.11-80.217 288.37-80.217s288.37 35.914 288.37 80.217c0 44.31-129.11 80.22-288.37 80.22z"/><path fill="#A70000" d="m381.57 293.46c-159.26 0-288.37-35.915-288.37-80.217 0-44.303 129.11-80.217 288.37-80.217s288.37 35.914 288.37 80.217c0 44.3-129.1 80.22-288.37 80.22z"/><path fill="#A80000" d="m381.57 293.2c-159.26 0-288.37-35.915-288.37-80.217 0-44.303 129.11-80.217 288.37-80.217s288.37 35.914 288.37 80.217c0 44.31-129.11 80.22-288.37 80.22z"/><path fill="#A90000" d="m381.56 292.95c-159.26 0-288.37-35.915-288.37-80.217 0-44.304 129.11-80.218 288.37-80.218s288.37 35.914 288.37 80.218c0 44.3-129.1 80.22-288.37 80.22z"/><path fill="#A00" d="m381.56 292.69c-159.26 0-288.37-35.916-288.37-80.218 0-44.303 129.11-80.217 288.37-80.217s288.37 35.915 288.37 80.217c0 44.31-129.11 80.22-288.37 80.22z"/><path fill="#AB0000" d="m381.56 292.44c-159.26 0-288.37-35.915-288.37-80.217 0-44.303 129.11-80.217 288.37-80.217s288.37 35.914 288.37 80.217c-0.01 44.3-129.11 80.22-288.37 80.22z"/><path fill="#AC0000" d="m381.55 292.18c-159.26 0-288.37-35.915-288.37-80.217 0-44.303 129.11-80.218 288.37-80.218s288.37 35.915 288.37 80.218c0 44.31-129.11 80.22-288.37 80.22z"/><path fill="#AD0000" d="m381.54 291.93c-159.26 0-288.37-35.915-288.37-80.217 0-44.304 129.11-80.218 288.37-80.218s288.37 35.914 288.37 80.218c0.01 44.3-129.1 80.22-288.37 80.22z"/><path fill="#AE0000" d="m381.54 291.67c-159.26 0-288.37-35.916-288.37-80.218 0-44.303 129.11-80.217 288.37-80.217s288.37 35.914 288.37 80.217c0 44.31-129.11 80.22-288.37 80.22z"/><path fill="#AF0000" d="m381.54 291.42c-159.26 0-288.37-35.915-288.37-80.217 0-44.303 129.11-80.217 288.37-80.217s288.37 35.914 288.37 80.217c0 44.3-129.11 80.22-288.37 80.22z"/><path fill="#B00000" d="m381.53 291.16c-159.26 0-288.37-35.915-288.37-80.217 0-44.304 129.11-80.218 288.37-80.218s288.37 35.914 288.37 80.218c0 44.31-129.11 80.22-288.37 80.22z"/><path fill="#B10000" d="m381.53 290.91c-159.26 0-288.37-35.915-288.37-80.217 0-44.304 129.11-80.218 288.37-80.218s288.37 35.914 288.37 80.218c0 44.3-129.11 80.22-288.37 80.22z"/><path fill="#B20000" d="m381.52 290.65c-159.26 0-288.37-35.915-288.37-80.217 0-44.303 129.11-80.217 288.37-80.217s288.37 35.914 288.37 80.217c0 44.31-129.1 80.22-288.37 80.22z"/><path fill="#B30000" d="m381.52 290.4c-159.26 0-288.37-35.915-288.37-80.217 0-44.303 129.11-80.218 288.37-80.218s288.37 35.915 288.37 80.218c0 44.3-129.11 80.22-288.37 80.22z"/><path fill="#B40000" d="m381.51 290.14c-159.26 0-288.37-35.915-288.37-80.217 0-44.304 129.11-80.218 288.37-80.218s288.37 35.914 288.37 80.218c0 44.31-129.1 80.22-288.37 80.22z"/><path fill="#B50000" d="m381.51 289.89c-159.26 0-288.37-35.916-288.37-80.218 0-44.303 129.11-80.217 288.37-80.217s288.37 35.915 288.37 80.217c0 44.3-129.11 80.22-288.37 80.22z"/><path fill="#B60000" d="m381.5 289.63c-159.26 0-288.37-35.915-288.37-80.217 0-44.303 129.11-80.217 288.37-80.217s288.37 35.914 288.37 80.217c0 44.31-129.1 80.22-288.37 80.22z"/><path fill="#B70000" d="m381.5 289.38c-159.26 0-288.37-35.915-288.37-80.217 0-44.304 129.11-80.218 288.37-80.218s288.37 35.914 288.37 80.218c0 44.3-129.11 80.22-288.37 80.22z"/><path fill="#B80000" d="m381.5 289.12c-159.26 0-288.37-35.915-288.37-80.217 0-44.304 129.11-80.218 288.37-80.218s288.37 35.914 288.37 80.218c-0.01 44.31-129.11 80.22-288.37 80.22z"/><path fill="#B90000" d="m381.49 288.87c-159.26 0-288.37-35.916-288.37-80.218 0-44.303 129.11-80.217 288.37-80.217s288.37 35.914 288.37 80.217c0 44.3-129.11 80.22-288.37 80.22z"/><path fill="#BA0000" d="m381.49 288.61c-159.26 0-288.37-35.915-288.37-80.217 0-44.303 129.11-80.218 288.37-80.218s288.37 35.915 288.37 80.218c0 44.31-129.11 80.22-288.37 80.22z"/><path fill="#B00" d="m381.48 288.36c-159.26 0-288.37-35.915-288.37-80.217 0-44.304 129.11-80.218 288.37-80.218s288.37 35.914 288.37 80.218c0 44.3-129.11 80.22-288.37 80.22z"/><path fill="#BC0000" d="m381.48 288.1c-159.26 0-288.37-35.915-288.37-80.217 0-44.304 129.11-80.218 288.37-80.218s288.37 35.915 288.37 80.218c0 44.31-129.11 80.22-288.37 80.22z"/><path fill="#BD0000" d="m381.47 287.85c-159.26 0-288.37-35.916-288.37-80.218 0-44.303 129.11-80.217 288.37-80.217s288.37 35.914 288.37 80.217c0 44.3-129.1 80.22-288.37 80.22z"/><path fill="#BE0000" d="m381.47 287.59c-159.26 0-288.37-35.915-288.37-80.217 0-44.303 129.11-80.218 288.37-80.218s288.37 35.915 288.37 80.218c0 44.31-129.11 80.22-288.37 80.22z"/><path fill="#BF0000" d="m381.46 287.34c-159.26 0-288.37-35.915-288.37-80.217 0-44.304 129.11-80.218 288.37-80.218s288.37 35.914 288.37 80.218c0 44.3-129.1 80.22-288.37 80.22z"/><path fill="#C00000" d="m381.46 287.08c-159.26 0-288.37-35.916-288.37-80.218 0-44.303 129.11-80.217 288.37-80.217s288.37 35.914 288.37 80.217c0 44.3-129.11 80.22-288.37 80.22z"/><path fill="#C10000" d="m381.46 286.82c-159.26 0-288.37-35.916-288.37-80.218 0-44.303 129.11-80.217 288.37-80.217s288.37 35.914 288.37 80.217c-0.01 44.31-129.11 80.22-288.37 80.22z"/><path fill="#C20000" d="m381.45 286.57c-159.26 0-288.37-35.915-288.37-80.217 0-44.304 129.11-80.218 288.37-80.218s288.37 35.914 288.37 80.218c0 44.3-129.11 80.22-288.37 80.22z"/><path fill="#C30000" d="m381.45 286.31c-159.26 0-288.37-35.915-288.37-80.217 0-44.304 129.11-80.218 288.37-80.218s288.37 35.915 288.37 80.218c-0.01 44.31-129.11 80.22-288.37 80.22z"/><path fill="#C40000" d="m381.44 286.06c-159.26 0-288.37-35.916-288.37-80.218 0-44.303 129.11-80.217 288.37-80.217s288.37 35.914 288.37 80.217c0 44.3-129.11 80.22-288.37 80.22z"/><path fill="#C50000" d="m381.44 285.8c-159.26 0-288.37-35.915-288.37-80.217 0-44.303 129.11-80.218 288.37-80.218s288.37 35.915 288.37 80.218c-0.01 44.31-129.11 80.22-288.37 80.22z"/><path fill="#C60000" d="m381.43 285.55c-159.26 0-288.37-35.915-288.37-80.217 0-44.304 129.11-80.218 288.37-80.218s288.37 35.914 288.37 80.218c0 44.3-129.11 80.22-288.37 80.22z"/><path fill="#C70000" d="m381.43 285.29c-159.26 0-288.37-35.915-288.37-80.217 0-44.304 129.11-80.218 288.37-80.218s288.37 35.915 288.37 80.218c0 44.31-129.11 80.22-288.37 80.22z"/><path fill="#C80000" d="m381.42 285.04c-159.26 0-288.37-35.916-288.37-80.218 0-44.303 129.11-80.217 288.37-80.217s288.37 35.914 288.37 80.217c0 44.3-129.11 80.22-288.37 80.22z"/><path fill="#C90000" d="m381.42 284.78c-159.26 0-288.37-35.915-288.37-80.217 0-44.303 129.11-80.218 288.37-80.218s288.37 35.915 288.37 80.218c0 44.31-129.11 80.22-288.37 80.22z"/><path fill="#CA0000" d="m381.41 284.53c-159.26 0-288.37-35.915-288.37-80.217 0-44.304 129.11-80.218 288.37-80.218s288.37 35.915 288.37 80.218c0 44.3-129.1 80.22-288.37 80.22z"/><path fill="#CB0000" d="m381.41 284.27c-159.26 0-288.37-35.916-288.37-80.218 0-44.303 129.11-80.217 288.37-80.217s288.37 35.914 288.37 80.217c0 44.31-129.11 80.22-288.37 80.22z"/><path fill="#C00" d="m381.4 284.02c-159.26 0-288.37-35.916-288.37-80.218 0-44.303 129.11-80.218 288.37-80.218s288.37 35.915 288.37 80.218c0 44.3-129.1 80.22-288.37 80.22z"/><path fill="#C00" d="m381.4 283.76c-159.26 0-288.37-35.915-288.37-80.217 0-44.304 129.11-80.218 288.37-80.218s288.37 35.914 288.37 80.218c0 44.31-129.11 80.22-288.37 80.22z"/><path fill="#CD0000" d="m381.4 283.51c-159.26 0-288.37-35.915-288.37-80.217 0-44.304 129.11-80.218 288.37-80.218s288.37 35.915 288.37 80.218c-0.01 44.3-129.11 80.22-288.37 80.22z"/><path fill="#CE0000" d="m381.39 283.25c-159.26 0-288.37-35.916-288.37-80.218 0-44.303 129.11-80.217 288.37-80.217s288.37 35.914 288.37 80.217c0 44.31-129.11 80.22-288.37 80.22z"/><path fill="#CF0000" d="m381.38 283c-159.26 0-288.37-35.916-288.37-80.218 0-44.303 129.11-80.218 288.37-80.218s288.37 35.915 288.37 80.218c0 44.3-129.1 80.22-288.37 80.22z"/><path fill="#D00000" d="m381.38 282.74c-159.26 0-288.37-35.915-288.37-80.217 0-44.304 129.11-80.218 288.37-80.218s288.37 35.914 288.37 80.218c0 44.31-129.11 80.22-288.37 80.22z"/><path fill="#D10000" d="m381.38 282.49c-159.26 0-288.37-35.915-288.37-80.217 0-44.304 129.11-80.218 288.37-80.218s288.37 35.915 288.37 80.218c0 44.3-129.11 80.22-288.37 80.22z"/><path fill="#D20000" d="m381.37 282.23c-159.26 0-288.37-35.916-288.37-80.218 0-44.303 129.11-80.218 288.37-80.218s288.37 35.915 288.37 80.218c0 44.31-129.11 80.22-288.37 80.22z"/><path fill="#D30000" d="m381.37 281.98c-159.26 0-288.37-35.916-288.37-80.218 0-44.304 129.11-80.218 288.37-80.218s288.37 35.914 288.37 80.218c0 44.3-129.11 80.22-288.37 80.22z"/><path fill="#D40000" d="m381.36 281.72c-159.26 0-288.37-35.915-288.37-80.217 0-44.304 129.11-80.218 288.37-80.218s288.37 35.915 288.37 80.218c0 44.31-129.11 80.22-288.37 80.22z"/><path fill="#D50000" d="m381.36 281.47c-159.26 0-288.37-35.916-288.37-80.218 0-44.303 129.11-80.217 288.37-80.217s288.37 35.914 288.37 80.217c0 44.3-129.11 80.22-288.37 80.22z"/><path fill="#D60000" d="m381.35 281.21c-159.26 0-288.37-35.916-288.37-80.218 0-44.303 129.11-80.218 288.37-80.218s288.37 35.915 288.37 80.218c0 44.31-129.1 80.22-288.37 80.22z"/><path fill="#D70000" d="m381.35 280.96c-159.26 0-288.37-35.916-288.37-80.218 0-44.304 129.11-80.218 288.37-80.218s288.37 35.914 288.37 80.218c0 44.3-129.11 80.22-288.37 80.22z"/><path fill="#D80000" d="m381.34 280.7c-159.26 0-288.37-35.915-288.37-80.217 0-44.304 129.11-80.218 288.37-80.218s288.37 35.915 288.37 80.218c0 44.31-129.1 80.22-288.37 80.22z"/><path fill="#D90000" d="m381.34 280.45c-159.26 0-288.37-35.916-288.37-80.217 0-44.304 129.11-80.218 288.37-80.218s288.37 35.915 288.37 80.218c0 44.3-129.11 80.22-288.37 80.22z"/><path fill="#DA0000" d="m381.34 280.19c-159.26 0-288.37-35.916-288.37-80.218 0-44.303 129.11-80.218 288.37-80.218s288.37 35.915 288.37 80.218c-0.01 44.31-129.11 80.22-288.37 80.22z"/><path fill="#DB0000" d="m381.33 279.94c-159.26 0-288.37-35.915-288.37-80.217 0-44.304 129.11-80.218 288.37-80.218s288.37 35.915 288.37 80.218c0 44.3-129.11 80.22-288.37 80.22z"/><path fill="#DC0000" d="m381.33 279.68c-159.26 0-288.37-35.915-288.37-80.217 0-44.304 129.11-80.218 288.37-80.218s288.37 35.914 288.37 80.218c0 44.31-129.11 80.22-288.37 80.22z"/><path fill="#D00" d="m381.32 279.43c-159.26 0-288.37-35.916-288.37-80.217 0-44.304 129.11-80.218 288.37-80.218s288.37 35.915 288.37 80.218c0 44.3-129.11 80.22-288.37 80.22z"/><path fill="#DE0000" d="m381.32 279.17c-159.26 0-288.37-35.916-288.37-80.218 0-44.304 129.11-80.218 288.37-80.218s288.37 35.914 288.37 80.218c-0.01 44.31-129.11 80.22-288.37 80.22z"/><path fill="#DF0000" d="m381.31 278.92c-159.26 0-288.37-35.915-288.37-80.217 0-44.303 129.11-80.218 288.37-80.218s288.37 35.915 288.37 80.218c0 44.3-129.1 80.22-288.37 80.22z"/><path fill="#E00000" d="m381.31 278.66c-159.26 0-288.37-35.916-288.37-80.217 0-44.304 129.11-80.218 288.37-80.218s288.37 35.915 288.37 80.218c0 44.3-129.11 80.22-288.37 80.22z"/><path fill="#E10000" d="m381.3 278.4c-159.26 0-288.37-35.916-288.37-80.218 0-44.303 129.11-80.218 288.37-80.218s288.37 35.915 288.37 80.218c0 44.31-129.1 80.22-288.37 80.22z"/><path fill="#E20000" d="m381.3 278.15c-159.26 0-288.37-35.916-288.37-80.218 0-44.304 129.11-80.218 288.37-80.218s288.37 35.915 288.37 80.218c0 44.3-129.11 80.22-288.37 80.22z"/><path fill="#E30000" d="m381.29 277.9c-159.26 0-288.37-35.915-288.37-80.217 0-44.303 129.11-80.218 288.37-80.218s288.37 35.915 288.37 80.218c0 44.3-129.1 80.22-288.37 80.22z"/><path fill="#E40000" d="m381.29 277.64c-159.26 0-288.37-35.916-288.37-80.217 0-44.304 129.11-80.218 288.37-80.218s288.37 35.915 288.37 80.218c0 44.3-129.11 80.22-288.37 80.22z"/><path fill="#E50000" d="m381.29 277.38c-159.26 0-288.37-35.916-288.37-80.218 0-44.304 129.11-80.218 288.37-80.218s288.37 35.914 288.37 80.218c-0.01 44.31-129.11 80.22-288.37 80.22z"/><path fill="#E60000" d="m381.28 277.13c-159.26 0-288.37-35.916-288.37-80.218 0-44.304 129.11-80.218 288.37-80.218s288.37 35.915 288.37 80.218c0 44.3-129.11 80.22-288.37 80.22z"/><path fill="#E70000" d="m381.28 276.87c-159.26 0-288.37-35.915-288.37-80.217 0-44.304 129.11-80.218 288.37-80.218s288.37 35.914 288.37 80.218c-0.01 44.31-129.11 80.22-288.37 80.22z"/><path fill="#E80000" d="m381.27 276.62c-159.26 0-288.37-35.916-288.37-80.217 0-44.304 129.11-80.218 288.37-80.218s288.37 35.915 288.37 80.218c0 44.3-129.11 80.22-288.37 80.22z"/><path fill="#E90000" d="m381.27 276.36c-159.26 0-288.37-35.916-288.37-80.218 0-44.304 129.11-80.218 288.37-80.218s288.37 35.915 288.37 80.218c0 44.31-129.11 80.22-288.37 80.22z"/><path fill="#EA0000" d="m381.26 276.11c-159.26 0-288.37-35.916-288.37-80.218 0-44.303 129.11-80.218 288.37-80.218s288.37 35.915 288.37 80.218c0 44.3-129.11 80.22-288.37 80.22z"/><path fill="#EB0000" d="m381.26 275.85c-159.26 0-288.37-35.916-288.37-80.217 0-44.304 129.11-80.218 288.37-80.218s288.37 35.915 288.37 80.218c-0.01 44.31-129.11 80.22-288.37 80.22z"/><path fill="#EC0000" d="m381.25 275.6c-159.26 0-288.37-35.916-288.37-80.218 0-44.303 129.11-80.218 288.37-80.218s288.37 35.915 288.37 80.218c0 44.3-129.1 80.22-288.37 80.22z"/><path fill="#ED0000" d="m381.25 275.34c-159.26 0-288.37-35.916-288.37-80.218 0-44.304 129.11-80.218 288.37-80.218s288.37 35.915 288.37 80.218c0 44.31-129.11 80.22-288.37 80.22z"/><path fill="#E00" d="m381.24 275.09c-159.26 0-288.37-35.915-288.37-80.217 0-44.304 129.11-80.218 288.37-80.218s288.37 35.914 288.37 80.218c0 44.3-129.1 80.22-288.37 80.22z"/><path fill="#EF0000" d="m381.24 274.83c-159.26 0-288.37-35.916-288.37-80.217 0-44.304 129.11-80.218 288.37-80.218s288.37 35.915 288.37 80.218c0 44.31-129.11 80.22-288.37 80.22z"/><path fill="#F00000" d="m381.24 274.58c-159.26 0-288.37-35.916-288.37-80.218 0-44.304 129.11-80.218 288.37-80.218s288.37 35.915 288.37 80.218c-0.01 44.3-129.11 80.22-288.37 80.22z"/><path fill="#F10000" d="m381.23 274.32c-159.26 0-288.37-35.916-288.37-80.218 0-44.304 129.11-80.218 288.37-80.218s288.37 35.915 288.37 80.218c0 44.31-129.11 80.22-288.37 80.22z"/><path fill="#F20000" d="m381.22 274.07c-159.26 0-288.37-35.915-288.37-80.217 0-44.304 129.11-80.218 288.37-80.218s288.37 35.915 288.37 80.218c0 44.3-129.1 80.22-288.37 80.22z"/><path fill="#F30000" d="m381.22 273.81c-159.26 0-288.37-35.916-288.37-80.217 0-44.304 129.11-80.218 288.37-80.218s288.37 35.915 288.37 80.218c0 44.31-129.11 80.22-288.37 80.22z"/><path fill="#F40000" d="m381.22 273.56c-159.26 0-288.37-35.916-288.37-80.218 0-44.304 129.11-80.218 288.37-80.218s288.37 35.915 288.37 80.218c-0.01 44.3-129.11 80.22-288.37 80.22z"/><path fill="#F50000" d="m381.21 273.3c-159.26 0-288.37-35.916-288.37-80.218 0-44.303 129.11-80.218 288.37-80.218s288.37 35.915 288.37 80.218c0 44.31-129.11 80.22-288.37 80.22z"/><path fill="#F60000" d="m381.21 273.05c-159.26 0-288.37-35.916-288.37-80.217 0-44.304 129.11-80.218 288.37-80.218s288.37 35.915 288.37 80.218c0 44.3-129.11 80.22-288.37 80.22z"/><path fill="#F70000" d="m381.2 272.79c-159.26 0-288.37-35.916-288.37-80.218 0-44.304 129.11-80.218 288.37-80.218s288.37 35.914 288.37 80.218c0 44.31-129.11 80.22-288.37 80.22z"/><path fill="#F80000" d="m381.2 272.54c-159.26 0-288.37-35.916-288.37-80.218 0-44.304 129.11-80.218 288.37-80.218s288.37 35.915 288.37 80.218c0 44.3-129.11 80.22-288.37 80.22z"/><path fill="#F90000" d="m381.19 272.28c-159.26 0-288.37-35.916-288.37-80.218 0-44.304 129.11-80.218 288.37-80.218s288.37 35.915 288.37 80.218c0 44.31-129.1 80.22-288.37 80.22z"/><path fill="#FA0000" d="m381.19 272.03c-159.26 0-288.37-35.916-288.37-80.217 0-44.304 129.11-80.218 288.37-80.218s288.37 35.915 288.37 80.218c0 44.3-129.11 80.22-288.37 80.22z"/><path fill="#FB0000" d="m381.18 271.77c-159.26 0-288.37-35.916-288.37-80.218 0-44.304 129.11-80.218 288.37-80.218s288.37 35.915 288.37 80.218c0 44.31-129.1 80.22-288.37 80.22z"/><path fill="#FC0000" d="m381.18 271.52c-159.26 0-288.37-35.916-288.37-80.218 0-44.304 129.11-80.218 288.37-80.218s288.37 35.915 288.37 80.218c0 44.3-129.11 80.22-288.37 80.22z"/><path fill="#FD0000" d="m381.18 271.26c-159.26 0-288.37-35.916-288.37-80.218 0-44.304 129.11-80.218 288.37-80.218s288.37 35.915 288.37 80.218c-0.01 44.31-129.11 80.22-288.37 80.22z"/><path fill="#FE0000" d="m381.17 271.01c-159.26 0-288.37-35.916-288.37-80.217 0-44.304 129.11-80.218 288.37-80.218s288.37 35.915 288.37 80.218c0 44.3-129.11 80.22-288.37 80.22z"/><path fill="red" d="m669.53 190.53c0 44.302-129.1 80.218-288.37 80.218s-288.37-35.916-288.37-80.218c0-44.304 129.11-80.218 288.37-80.218s288.37 35.92 288.37 80.22z"/></g><g><path fill="#F99" d="m667.38 190.81c0 40.055-128.94 72.526-287.98 72.526-159.05 0-287.98-32.471-287.98-72.526 0-40.053 128.93-72.522 287.98-72.522 159.04 0 287.98 32.47 287.98 72.52z"/><path fill="#FF9A9A" d="m91.443 189.57c0-40.053 128.93-72.522 287.98-72.522 159.04 0 287.98 32.469 287.98 72.522 0 40.055-128.94 72.526-287.98 72.526s-287.98-32.48-287.98-72.53z"/><path fill="#FF9A9B" d="m91.472 188.32c0-40.053 128.93-72.522 287.98-72.522s287.98 32.469 287.98 72.522c0 40.055-128.94 72.526-287.98 72.526-159.05 0-287.98-32.47-287.98-72.53z"/><path fill="#FF9B9C" d="m91.501 187.08c0-40.053 128.93-72.522 287.98-72.522 159.04 0 287.98 32.469 287.98 72.522 0 40.055-128.94 72.526-287.98 72.526-159.05 0-287.98-32.47-287.98-72.53z"/><path fill="#FF9C9D" d="m91.53 185.84c0-40.053 128.93-72.522 287.98-72.522s287.98 32.469 287.98 72.522c0 40.055-128.94 72.526-287.98 72.526-159.05-0.01-287.98-32.48-287.98-72.53z"/><path fill="#FF9C9E" d="m91.559 184.59c0-40.053 128.93-72.522 287.98-72.522s287.98 32.469 287.98 72.522c0 40.055-128.94 72.526-287.98 72.526-159.05 0-287.98-32.47-287.98-72.53z"/><path fill="#FF9D9F" d="m91.588 183.35c0-40.053 128.93-72.522 287.98-72.522s287.98 32.469 287.98 72.522c0 40.055-128.94 72.526-287.98 72.526-159.05-0.01-287.98-32.48-287.98-72.53z"/><path fill="#FF9EA0" d="m91.617 182.1c0-40.053 128.93-72.522 287.98-72.522s287.98 32.469 287.98 72.522c0 40.055-128.94 72.526-287.98 72.526-159.05 0-287.98-32.47-287.98-72.53z"/><path fill="#FF9FA1" d="m91.646 180.86c0-40.053 128.93-72.522 287.98-72.522 159.04 0 287.98 32.469 287.98 72.522 0 40.055-128.94 72.526-287.98 72.526-159.05 0-287.98-32.47-287.98-72.53z"/><path fill="#FF9FA2" d="m91.675 179.62c0-40.054 128.93-72.523 287.98-72.523 159.04 0 287.98 32.469 287.98 72.523 0 40.055-128.94 72.525-287.98 72.525-159.05 0-287.98-32.47-287.98-72.52z"/><path fill="#FFA0A3" d="m91.705 178.37c0-40.054 128.93-72.523 287.98-72.523 159.04 0 287.98 32.469 287.98 72.523 0 40.055-128.94 72.525-287.98 72.525s-287.98-32.47-287.98-72.53z"/><path fill="#FFA1A4" d="m91.733 177.13c0-40.054 128.93-72.523 287.98-72.523s287.98 32.469 287.98 72.523c0 40.055-128.94 72.525-287.98 72.525-159.04-0.01-287.98-32.48-287.98-72.53z"/><path fill="#FFA1A5" d="m91.763 175.88c0-40.054 128.93-72.523 287.98-72.523s287.98 32.469 287.98 72.523c0 40.055-128.94 72.525-287.98 72.525-159.04 0.01-287.98-32.46-287.98-72.52z"/><path fill="#FFA2A6" d="m91.792 174.64c0-40.054 128.93-72.523 287.98-72.523s287.98 32.469 287.98 72.523c0 40.055-128.94 72.525-287.98 72.525-159.05 0-287.98-32.47-287.98-72.52z"/><path fill="#FFA3A7" d="m91.821 173.4c0-40.054 128.93-72.523 287.98-72.523s287.98 32.469 287.98 72.523c0 40.055-128.94 72.525-287.98 72.525-159.05 0-287.98-32.47-287.98-72.52z"/><path fill="#FFA3A8" d="m91.85 172.15c0-40.054 128.93-72.523 287.98-72.523s287.98 32.469 287.98 72.523c0 40.055-128.94 72.525-287.98 72.525-159.05 0-287.98-32.47-287.98-72.53z"/><path fill="#FFA4A9" d="m91.879 170.91c0-40.053 128.93-72.523 287.98-72.523s287.98 32.47 287.98 72.523c0 40.055-128.94 72.525-287.98 72.525-159.05-0.01-287.98-32.48-287.98-72.53z"/><path fill="#FFA5AA" d="m91.908 169.66c0-40.053 128.93-72.523 287.98-72.523s287.98 32.47 287.98 72.523c0 40.055-128.94 72.525-287.98 72.525-159.05 0.01-287.98-32.46-287.98-72.52z"/><path fill="#FFA6AB" d="m91.937 168.42c0-40.053 128.93-72.523 287.98-72.523s287.98 32.47 287.98 72.523c0 40.055-128.94 72.525-287.98 72.525-159.05 0-287.98-32.47-287.98-72.52z"/><path fill="#FFA6AC" d="m91.966 167.18c0-40.053 128.93-72.523 287.98-72.523 159.04 0 287.98 32.47 287.98 72.523 0 40.055-128.94 72.525-287.98 72.525-159.05 0-287.98-32.47-287.98-72.52z"/><path fill="#FFA7AD" d="m91.995 165.93c0-40.053 128.93-72.523 287.98-72.523 159.04 0 287.98 32.47 287.98 72.523 0 40.055-128.94 72.525-287.98 72.525-159.05 0-287.98-32.48-287.98-72.53z"/><path fill="#FFA8AE" d="m92.024 164.69c0-40.053 128.93-72.523 287.98-72.523s287.98 32.47 287.98 72.523c0 40.055-128.94 72.525-287.98 72.525-159.04-0.01-287.98-32.48-287.98-72.53z"/><path fill="#FFA8AF" d="m92.054 163.44c0-40.053 128.93-72.523 287.98-72.523s287.98 32.47 287.98 72.523c0 40.055-128.94 72.525-287.98 72.525-159.04 0.01-287.98-32.46-287.98-72.52z"/><path fill="#FFA9B0" d="m92.083 162.2c0-40.053 128.93-72.523 287.98-72.523s287.98 32.47 287.98 72.523c0 40.055-128.94 72.525-287.98 72.525s-287.98-32.47-287.98-72.52z"/><path fill="#FFAAB1" d="m92.112 160.96c0-40.054 128.93-72.523 287.98-72.523s287.98 32.47 287.98 72.523c0 40.054-128.94 72.525-287.98 72.525-159.05 0-287.98-32.47-287.98-72.52z"/><path fill="#FFAAB2" d="m92.141 159.71c0-40.054 128.93-72.523 287.98-72.523s287.98 32.47 287.98 72.523c0 40.055-128.94 72.525-287.98 72.525-159.05 0-287.98-32.48-287.98-72.53z"/><path fill="#FFABB3" d="m92.17 158.47c0-40.054 128.93-72.523 287.98-72.523s287.98 32.47 287.98 72.523c0 40.055-128.94 72.525-287.98 72.525-159.05-0.01-287.98-32.48-287.98-72.53z"/><path fill="#FFACB4" d="m92.199 157.22c0-40.054 128.93-72.523 287.98-72.523s287.98 32.47 287.98 72.523c0 40.055-128.94 72.525-287.98 72.525-159.05 0.01-287.98-32.46-287.98-72.52z"/><path fill="#FFADB5" d="m92.228 155.98c0-40.054 128.93-72.523 287.98-72.523s287.98 32.47 287.98 72.523c0 40.055-128.94 72.525-287.98 72.525-159.05 0-287.98-32.47-287.98-72.52z"/><path fill="#FFADB6" d="m92.257 154.73c0-40.054 128.93-72.523 287.98-72.523 159.04 0 287.98 32.47 287.98 72.523 0 40.055-128.94 72.525-287.98 72.525-159.05 0-287.98-32.47-287.98-72.53z"/><path fill="#FFAEB7" d="m92.286 153.49c0-40.054 128.93-72.523 287.98-72.523 159.04 0 287.98 32.47 287.98 72.523 0 40.055-128.94 72.525-287.98 72.525-159.05 0-287.98-32.48-287.98-72.53z"/><path fill="#FFAFB8" d="m92.315 152.25c0-40.054 128.93-72.523 287.98-72.523s287.98 32.47 287.98 72.523c0 40.055-128.94 72.525-287.98 72.525-159.05-0.01-287.98-32.48-287.98-72.53z"/><path fill="#FFAFB8" d="m92.344 151c0-40.054 128.93-72.523 287.98-72.523s287.98 32.469 287.98 72.523c0 40.055-128.94 72.524-287.98 72.524s-287.98-32.46-287.98-72.52z"/><path fill="#FFB0B9" d="m92.374 149.76c0-40.054 128.93-72.523 287.98-72.523s287.98 32.469 287.98 72.523c0 40.055-128.94 72.524-287.98 72.524s-287.98-32.47-287.98-72.52z"/><path fill="#FFB1BA" d="m92.402 148.51c0-40.054 128.93-72.523 287.98-72.523s287.98 32.469 287.98 72.523c0 40.055-128.94 72.524-287.98 72.524-159.04 0.01-287.98-32.46-287.98-72.52z"/><path fill="#FFB1BB" d="m92.432 147.27c0-40.054 128.93-72.523 287.98-72.523s287.98 32.469 287.98 72.523c0 40.055-128.94 72.524-287.98 72.524-159.05 0-287.98-32.47-287.98-72.52z"/><path fill="#FFB2BC" d="m92.461 146.02c0-40.054 128.93-72.523 287.98-72.523s287.98 32.469 287.98 72.523c0 40.055-128.94 72.524-287.98 72.524-159.05 0.01-287.98-32.46-287.98-72.52z"/><path fill="#FFB3BD" d="m92.49 144.78c0-40.054 128.93-72.523 287.98-72.523s287.98 32.469 287.98 72.523c0 40.055-128.94 72.524-287.98 72.524-159.05 0-287.98-32.46-287.98-72.52z"/><path fill="#FFB4BE" d="m92.519 143.54c0-40.054 128.93-72.523 287.98-72.523s287.98 32.469 287.98 72.523c0 40.055-128.94 72.524-287.98 72.524-159.05 0-287.98-32.47-287.98-72.52z"/><path fill="#FFB4BF" d="m92.548 142.29c0-40.054 128.93-72.523 287.98-72.523s287.98 32.469 287.98 72.523c0 40.055-128.94 72.524-287.98 72.524-159.05 0.01-287.98-32.46-287.98-72.52z"/><path fill="#FFB5C0" d="m92.577 141.05c0-40.054 128.93-72.523 287.98-72.523s287.98 32.469 287.98 72.523-128.94 72.523-287.98 72.523c-159.05 0-287.98-32.47-287.98-72.52z"/><path fill="#FFB6C1" d="m92.606 139.8c0-40.054 128.93-72.523 287.98-72.523s287.98 32.469 287.98 72.523-128.94 72.523-287.98 72.523c-159.05 0.01-287.98-32.46-287.98-72.52z"/><path fill="#FFB6C2" d="m92.635 138.56c0-40.054 128.93-72.523 287.98-72.523s287.98 32.469 287.98 72.523-128.94 72.523-287.98 72.523c-159.05 0-287.98-32.46-287.98-72.52z"/><path fill="#FFB7C3" d="m92.665 137.32c0-40.054 128.93-72.523 287.98-72.523s287.98 32.469 287.98 72.523-128.93 72.52-287.98 72.52c-159.04 0-287.98-32.47-287.98-72.52z"/><path fill="#FFB8C4" d="m92.693 136.07c0-40.054 128.93-72.523 287.98-72.523s287.98 32.469 287.98 72.523-128.94 72.523-287.98 72.523c-159.04 0.01-287.98-32.46-287.98-72.52z"/><path fill="#FFB8C5" d="m92.723 134.83c0-40.054 128.93-72.523 287.98-72.523s287.98 32.469 287.98 72.523-128.94 72.523-287.98 72.523c-159.04 0-287.98-32.47-287.98-72.52z"/><path fill="#FFB9C6" d="m92.751 133.58c0-40.054 128.93-72.523 287.98-72.523s287.98 32.469 287.98 72.523-128.94 72.523-287.98 72.523c-159.05 0.01-287.98-32.46-287.98-72.52z"/><path fill="#FFBAC7" d="m92.781 132.34c0-40.054 128.93-72.523 287.98-72.523s287.98 32.469 287.98 72.523-128.94 72.523-287.98 72.523c-159.05 0-287.98-32.47-287.98-72.52z"/><path fill="#FFBBC8" d="m92.81 131.1c0-40.054 128.93-72.523 287.98-72.523s287.98 32.47 287.98 72.523c0 40.055-128.94 72.523-287.98 72.523-159.05 0-287.98-32.47-287.98-72.52z"/><path fill="#FFBBC9" d="m92.839 129.85c0-40.054 128.93-72.523 287.98-72.523s287.98 32.47 287.98 72.523c0 40.055-128.94 72.523-287.98 72.523-159.05 0.01-287.98-32.46-287.98-72.52z"/><path fill="#FFBCCA" d="m92.868 128.61c0-40.054 128.93-72.523 287.98-72.523s287.98 32.47 287.98 72.523c0 40.055-128.94 72.523-287.98 72.523-159.05 0-287.98-32.47-287.98-72.52z"/><path fill="#FFBDCB" d="m92.897 127.36c0-40.054 128.93-72.523 287.98-72.523s287.98 32.47 287.98 72.523c0 40.055-128.94 72.523-287.98 72.523-159.05 0.01-287.98-32.46-287.98-72.52z"/><path fill="#FFBDCC" d="m92.926 126.12c0-40.054 128.93-72.523 287.98-72.523s287.98 32.47 287.98 72.523c0 40.055-128.94 72.523-287.98 72.523-159.05 0-287.98-32.47-287.98-72.52z"/><path fill="#FFBECD" d="m92.955 124.88c0-40.054 128.93-72.523 287.98-72.523s287.98 32.47 287.98 72.523c0 40.055-128.94 72.523-287.98 72.523-159.05 0-287.98-32.47-287.98-72.52z"/><path fill="#FFBFCE" d="m92.984 123.63c0-40.054 128.93-72.523 287.98-72.523s287.98 32.47 287.98 72.523c0 40.055-128.94 72.523-287.98 72.523s-287.98-32.46-287.98-72.52z"/><path fill="#FFBFCF" d="m93.013 122.39c0-40.054 128.93-72.523 287.98-72.523s287.98 32.47 287.98 72.523c0 40.055-128.94 72.523-287.98 72.523s-287.98-32.47-287.98-72.52z"/><path fill="#FFC0D0" d="m93.042 121.14c0-40.054 128.93-72.524 287.98-72.524s287.98 32.47 287.98 72.524-128.94 72.523-287.98 72.523c-159.04 0.01-287.98-32.46-287.98-72.52z"/><path fill="#FFC1D1" d="m93.072 119.9c0-40.054 128.93-72.524 287.98-72.524s287.98 32.47 287.98 72.524-128.94 72.523-287.98 72.523c-159.05 0-287.98-32.47-287.98-72.52z"/><path fill="#FFC2D2" d="m93.101 118.66c0-40.054 128.93-72.524 287.98-72.524s287.98 32.47 287.98 72.524-128.94 72.523-287.98 72.523c-159.05 0-287.98-32.47-287.98-72.52z"/><path fill="#FFC2D3" d="m93.13 117.41c0-40.054 128.93-72.524 287.98-72.524s287.98 32.47 287.98 72.524-128.94 72.523-287.98 72.523c-159.05 0-287.98-32.47-287.98-72.52z"/><path fill="#FFC3D4" d="m93.159 116.17c0-40.054 128.93-72.524 287.98-72.524s287.98 32.47 287.98 72.524-128.94 72.523-287.98 72.523c-159.05 0-287.98-32.47-287.98-72.52z"/><path fill="#FFC4D5" d="m93.188 114.92c0-40.054 128.93-72.524 287.98-72.524s287.98 32.47 287.98 72.524-128.94 72.523-287.98 72.523c-159.05 0-287.98-32.46-287.98-72.52z"/><path fill="#FFC4D6" d="m93.217 113.68c0-40.054 128.93-72.524 287.98-72.524s287.98 32.47 287.98 72.524-128.94 72.523-287.98 72.523c-159.05 0-287.98-32.47-287.98-72.52z"/><path fill="#FFC5D7" d="m669.21 112.43c0 40.054-128.94 72.523-287.98 72.523-159.05 0-287.98-32.469-287.98-72.523s128.93-72.52 287.98-72.52c159.04 0 287.98 32.47 287.98 72.52z"/></g><path fill="#F66" d="m304.27 181.48l1.602 204.76s25.234 5.248 65.295 5.778l-2.21-282.49-64.68 71.95z"/><path fill="#F99" d="m433.66 181.93v203.38s-24.825 5.408-64.298 6.246v-280.58l64.3 70.95z"/><path fill="none" stroke="#900" stroke-width="2.766" d="m304.01 261.14"/><linearGradient id="XMLID_1_" x1="343.15" x2="332.7" y1="286.54" y2="247.56" gradientTransform="matrix(1.0046 -.0594 .004 .9452 -3.2917 32.283)" gradientUnits="userSpaceOnUse"><stop style="stop-color:#420000" offset="0"/><stop style="stop-color:#5e0000" offset=".082"/><stop style="stop-color:#840000" offset=".216"/><stop style="stop-color:#a40000" offset=".355"/><stop style="stop-color:#bd0000" offset=".499"/><stop style="stop-color:#ce0000" offset=".649"/><stop style="stop-color:#d90000" offset=".81"/><stop style="stop-color:#dc0000" offset="1"/></linearGradient><path fill="url(#XMLID_1_)" d="m369.95 267.58l-65.669 27.106 0.307-32.987 65.668-27.106-0.31 32.99z"/><linearGradient id="XMLID_2_" x1="267.48" x2="257.04" y1="281.61" y2="242.64" gradientTransform="matrix(-.9962 -.0472 -.0166 .9648 667.58 24.429)" gradientUnits="userSpaceOnUse"><stop style="stop-color:#830000" offset="0"/><stop style="stop-color:#a80000" offset=".141"/><stop style="stop-color:#c70000" offset=".292"/><stop style="stop-color:#e00000" offset=".45"/><stop style="stop-color:#f10000" offset=".615"/><stop style="stop-color:#fc0000" offset=".791"/><stop style="stop-color:red" offset="1"/></linearGradient><path fill="url(#XMLID_2_)" d="m369.53 268.37l64.808 26.79 0.134-33.661-64.807-26.791-0.13 33.66z"/><g><radialGradient id="XMLID_3_" cx="537.5" cy="-642.24" r="50.601" gradientTransform="matrix(.7631 0 0 .329 -112.32 276.85)" gradientUnits="userSpaceOnUse"><stop style="stop-color:#fff" offset=".006"/><stop style="stop-color:#fffdfd" offset=".535"/><stop style="stop-color:#fff6f7" offset=".726"/><stop style="stop-color:#ffebec" offset=".862"/><stop style="stop-color:#ffdadc" offset=".972"/><stop style="stop-color:#ffd4d7" offset="1"/></radialGradient><path fill="url(#XMLID_3_)" d="m336.46 65.555c0 9.193-17.289 16.646-38.614 16.646-21.326 0-38.615-7.453-38.615-16.646 0-9.195 17.289-16.648 38.615-16.648 21.31-0.001 38.6 7.452 38.6 16.648z"/><radialGradient id="XMLID_4_" cx="694.75" cy="-972.37" r="50.601" gradientTransform="matrix(.6289 0 0 .2605 -138.68 302.4)" gradientUnits="userSpaceOnUse"><stop style="stop-color:#fff" offset=".006"/><stop style="stop-color:#fffdfd" offset=".535"/><stop style="stop-color:#fff6f7" offset=".726"/><stop style="stop-color:#ffebec" offset=".862"/><stop style="stop-color:#ffdadc" offset=".972"/><stop style="stop-color:#ffd4d7" offset="1"/></radialGradient><path fill="url(#XMLID_4_)" d="m330.04 49.134c0 7.279-14.247 13.179-31.821 13.179s-31.821-5.9-31.821-13.179 14.247-13.179 31.821-13.179c17.57 0 31.82 5.9 31.82 13.179z"/><radialGradient id="XMLID_5_" cx="1034" cy="-1378.1" r="50.601" gradientTransform="matrix(.4663 0 0 .2056 -182.67 318.17)" gradientUnits="userSpaceOnUse"><stop style="stop-color:#fff" offset=".006"/><stop style="stop-color:#fffdfd" offset=".535"/><stop style="stop-color:#fff6f7" offset=".726"/><stop style="stop-color:#ffebec" offset=".862"/><stop style="stop-color:#ffdadc" offset=".972"/><stop style="stop-color:#ffd4d7" offset="1"/></radialGradient><path fill="url(#XMLID_5_)" d="m323.14 34.796c0 5.746-10.564 10.405-23.598 10.405-13.033 0-23.598-4.659-23.598-10.405 0-5.747 10.565-10.405 23.598-10.405 13.04 0 23.6 4.658 23.6 10.405z"/><radialGradient id="XMLID_6_" cx="-898.45" cy="776.95" r="26.154" gradientTransform="matrix(-1 -.00060996 .00060996 -1 -605.99 795.75)" gradientUnits="userSpaceOnUse"><stop style="stop-color:#fff" offset=".006"/><stop style="stop-color:red" offset=".551"/><stop style="stop-color:#fc0000" offset=".614"/><stop style="stop-color:#f20000" offset=".664"/><stop style="stop-color:#e10000" offset=".71"/><stop style="stop-color:#c90000" offset=".753"/><stop style="stop-color:#ab0000" offset=".794"/><stop style="stop-color:#860000" offset=".834"/><stop style="stop-color:#7c0000" offset=".843"/></radialGradient><path fill="url(#XMLID_6_)" d="m280.54 23.629c0.276-18.348 24.947-25.404 33.146-8.58 13.67 23.729-32.95 34.921-33.15 8.58"/></g><g><radialGradient id="XMLID_7_" cx="897.59" cy="-574.96" r="50.602" gradientTransform="matrix(.7631 .00021926 -.000094527 .329 -112.39 276.65)" gradientUnits="userSpaceOnUse"><stop style="stop-color:#fff" offset=".006"/><stop style="stop-color:#fffdfd" offset=".535"/><stop style="stop-color:#fff6f7" offset=".726"/><stop style="stop-color:#ffebec" offset=".862"/><stop style="stop-color:#ffdadc" offset=".972"/><stop style="stop-color:#ffd4d7" offset="1"/></radialGradient><path fill="url(#XMLID_7_)" d="m611.24 87.695c-0.002 9.194-17.295 16.643-38.618 16.636-21.327-0.006-38.613-7.464-38.611-16.658 0.004-9.194 17.293-16.643 38.62-16.637 21.32 0.007 38.61 7.466 38.61 16.66z"/><radialGradient id="XMLID_8_" cx="1131.7" cy="-887.41" r="50.602" gradientTransform="matrix(.6289 .00018068 -.000074834 .2605 -138.76 302.19)" gradientUnits="userSpaceOnUse"><stop style="stop-color:#fff" offset=".006"/><stop style="stop-color:#fffdfd" offset=".535"/><stop style="stop-color:#fff6f7" offset=".726"/><stop style="stop-color:#ffebec" offset=".862"/><stop style="stop-color:#ffdadc" offset=".972"/><stop style="stop-color:#ffd4d7" offset="1"/></radialGradient><path fill="url(#XMLID_8_)" d="m604.82 71.273c-0.002 7.279-14.25 13.175-31.824 13.17s-31.82-5.91-31.818-13.189c0.003-7.279 14.252-13.175 31.826-13.17 17.57 0.006 31.81 5.91 31.81 13.189z"/><radialGradient id="XMLID_9_" cx="1623.3" cy="-1270.4" r="50.601" gradientTransform="matrix(.4663 .00013399 -.000059082 .2056 -182.75 317.94)" gradientUnits="userSpaceOnUse"><stop style="stop-color:#fff" offset=".006"/><stop style="stop-color:#fffdfd" offset=".535"/><stop style="stop-color:#fff6f7" offset=".726"/><stop style="stop-color:#ffebec" offset=".862"/><stop style="stop-color:#ffdadc" offset=".972"/><stop style="stop-color:#ffd4d7" offset="1"/></radialGradient><path fill="url(#XMLID_9_)" d="m597.93 56.934c-0.002 5.746-10.566 10.402-23.6 10.398-13.034-0.003-23.598-4.666-23.596-10.412 0.002-5.747 10.567-10.402 23.601-10.398s23.6 4.664 23.6 10.412z"/><radialGradient id="XMLID_10_" cx="-1173.3" cy="754.96" r="26.154" gradientTransform="matrix(-1 -.00089728 .00089728 -1 -606.22 795.41)" gradientUnits="userSpaceOnUse"><stop style="stop-color:#fff" offset=".006"/><stop style="stop-color:red" offset=".551"/><stop style="stop-color:#fc0000" offset=".614"/><stop style="stop-color:#f20000" offset=".664"/><stop style="stop-color:#e10000" offset=".71"/><stop style="stop-color:#c90000" offset=".753"/><stop style="stop-color:#ab0000" offset=".794"/><stop style="stop-color:#860000" offset=".834"/><stop style="stop-color:#7c0000" offset=".843"/></radialGradient><path fill="url(#XMLID_10_)" d="m555.33 45.754c0.281-18.349 24.953-25.397 33.147-8.57 13.66 23.733-32.96 34.911-33.15 8.57"/></g><g><radialGradient id="XMLID_11_" cx="390.08" cy="-496.5" r="50.602" gradientTransform="matrix(.7631 0 0 .329 -112.32 276.85)" gradientUnits="userSpaceOnUse"><stop style="stop-color:#fff" offset=".006"/><stop style="stop-color:#fffdfd" offset=".535"/><stop style="stop-color:#fff6f7" offset=".726"/><stop style="stop-color:#ffebec" offset=".862"/><stop style="stop-color:#ffdadc" offset=".972"/><stop style="stop-color:#ffd4d7" offset="1"/></radialGradient><path fill="url(#XMLID_11_)" d="m223.97 113.5c0 9.194-17.288 16.647-38.614 16.647s-38.615-7.453-38.615-16.647 17.289-16.648 38.615-16.648 38.61 7.458 38.61 16.648z"/><radialGradient id="XMLID_12_" cx="515.87" cy="-788.26" r="50.601" gradientTransform="matrix(.6289 0 0 .2605 -138.68 302.4)" gradientUnits="userSpaceOnUse"><stop style="stop-color:#fff" offset=".006"/><stop style="stop-color:#fffdfd" offset=".535"/><stop style="stop-color:#fff6f7" offset=".726"/><stop style="stop-color:#ffebec" offset=".862"/><stop style="stop-color:#ffdadc" offset=".972"/><stop style="stop-color:#ffd4d7" offset="1"/></radialGradient><path fill="url(#XMLID_12_)" d="m217.54 97.083c0 7.278-14.247 13.179-31.821 13.179-17.575 0-31.821-5.9-31.821-13.179 0-7.28 14.247-13.18 31.821-13.18 17.58 0.002 31.82 5.902 31.82 13.182z"/><radialGradient id="XMLID_13_" cx="792.8" cy="-1144.9" r="50.602" gradientTransform="matrix(.4663 0 0 .2056 -182.67 318.17)" gradientUnits="userSpaceOnUse"><stop style="stop-color:#fff" offset=".006"/><stop style="stop-color:#fffdfd" offset=".535"/><stop style="stop-color:#fff6f7" offset=".726"/><stop style="stop-color:#ffebec" offset=".862"/><stop style="stop-color:#ffdadc" offset=".972"/><stop style="stop-color:#ffd4d7" offset="1"/></radialGradient><path fill="url(#XMLID_13_)" d="m210.65 82.745c0 5.746-10.564 10.405-23.598 10.405s-23.598-4.659-23.598-10.405c0-5.747 10.564-10.405 23.598-10.405s23.6 4.658 23.6 10.405z"/><radialGradient id="XMLID_14_" cx="-785.98" cy="728.94" r="26.154" gradientTransform="matrix(-1 -.00060996 .00060996 -1 -605.99 795.75)" gradientUnits="userSpaceOnUse"><stop style="stop-color:#fff" offset=".006"/><stop style="stop-color:red" offset=".551"/><stop style="stop-color:#fc0000" offset=".614"/><stop style="stop-color:#f20000" offset=".664"/><stop style="stop-color:#e10000" offset=".71"/><stop style="stop-color:#c90000" offset=".753"/><stop style="stop-color:#ab0000" offset=".794"/><stop style="stop-color:#860000" offset=".834"/><stop style="stop-color:#7c0000" offset=".843"/></radialGradient><path fill="url(#XMLID_14_)" d="m168.05 71.578c0.276-18.348 24.947-25.404 33.146-8.58 13.66 23.729-32.95 34.921-33.15 8.58"/></g><g><radialGradient id="XMLID_15_" cx="806.65" cy="-414.11" r="50.601" gradientTransform="matrix(.7621 .0399 -.0172 .3285 -121.36 243.13)" gradientUnits="userSpaceOnUse"><stop style="stop-color:#fff" offset=".006"/><stop style="stop-color:#fffdfd" offset=".535"/><stop style="stop-color:#fff6f7" offset=".726"/><stop style="stop-color:#ffebec" offset=".862"/><stop style="stop-color:#ffdadc" offset=".972"/><stop style="stop-color:#ffd4d7" offset="1"/></radialGradient><path fill="url(#XMLID_15_)" d="m539.06 141.31c-0.479 9.182-18.137 15.721-39.434 14.603-21.296-1.115-38.171-9.462-37.691-18.645 0.482-9.181 18.137-15.721 39.436-14.604 21.28 1.12 38.16 9.47 37.68 18.65z"/><radialGradient id="XMLID_16_" cx="1021.4" cy="-684.24" r="50.602" gradientTransform="matrix(.628 .0329 -.0136 .2601 -149.02 267.27)" gradientUnits="userSpaceOnUse"><stop style="stop-color:#fff" offset=".006"/><stop style="stop-color:#fffdfd" offset=".535"/><stop style="stop-color:#fff6f7" offset=".726"/><stop style="stop-color:#ffebec" offset=".862"/><stop style="stop-color:#ffdadc" offset=".972"/><stop style="stop-color:#ffd4d7" offset="1"/></radialGradient><path fill="url(#XMLID_16_)" d="m533.5 124.58c-0.381 7.269-14.917 12.417-32.467 11.496-17.55-0.919-31.469-7.559-31.088-14.826 0.382-7.271 14.917-12.417 32.467-11.498 17.55 0.92 31.47 7.56 31.09 14.83z"/><radialGradient id="XMLID_17_" cx="1474.5" cy="-1013.1" r="50.602" gradientTransform="matrix(.4657 .0244 -.0108 .2053 -193.77 280.71)" gradientUnits="userSpaceOnUse"><stop style="stop-color:#fff" offset=".006"/><stop style="stop-color:#fffdfd" offset=".535"/><stop style="stop-color:#fff6f7" offset=".726"/><stop style="stop-color:#ffebec" offset=".862"/><stop style="stop-color:#ffdadc" offset=".972"/><stop style="stop-color:#ffd4d7" offset="1"/></radialGradient><path fill="url(#XMLID_17_)" d="m527.36 109.9c-0.3 5.739-11.093 9.838-24.11 9.157-13.015-0.683-23.319-5.888-23.021-11.626 0.301-5.739 11.095-9.837 24.11-9.156 13.02 0.682 23.32 5.886 23.02 11.626z"/><radialGradient id="XMLID_18_" cx="-1103.9" cy="701.99" r="26.154" gradientTransform="matrix(-.9986 -.0529 .0529 -.9986 -641.51 735.49)" gradientUnits="userSpaceOnUse"><stop style="stop-color:#fff" offset=".006"/><stop style="stop-color:red" offset=".551"/><stop style="stop-color:#fc0000" offset=".614"/><stop style="stop-color:#f20000" offset=".664"/><stop style="stop-color:#e10000" offset=".71"/><stop style="stop-color:#c90000" offset=".753"/><stop style="stop-color:#ab0000" offset=".794"/><stop style="stop-color:#860000" offset=".834"/><stop style="stop-color:#7c0000" offset=".843"/></radialGradient><path fill="url(#XMLID_18_)" d="m485.41 96.518c1.235-18.309 26.243-24.063 33.549-6.833 12.4 24.415-34.73 33.145-33.55 6.833"/></g><g><radialGradient id="XMLID_19_" cx="727.21" cy="-659.06" r="50.602" gradientTransform="matrix(.7631 0 0 .329 -112.32 276.85)" gradientUnits="userSpaceOnUse"><stop style="stop-color:#fff" offset=".006"/><stop style="stop-color:#fffdfd" offset=".535"/><stop style="stop-color:#fff6f7" offset=".726"/><stop style="stop-color:#ffebec" offset=".862"/><stop style="stop-color:#ffdadc" offset=".972"/><stop style="stop-color:#ffd4d7" offset="1"/></radialGradient><path fill="url(#XMLID_19_)" d="m481.23 60.022c0 9.194-17.287 16.647-38.614 16.647-21.326 0-38.615-7.453-38.615-16.647 0-9.195 17.289-16.648 38.615-16.648 21.32 0 38.61 7.453 38.61 16.648z"/><radialGradient id="XMLID_20_" cx="924.96" cy="-993.6" r="50.602" gradientTransform="matrix(.6289 0 0 .2605 -138.68 302.4)" gradientUnits="userSpaceOnUse"><stop style="stop-color:#fff" offset=".006"/><stop style="stop-color:#fffdfd" offset=".535"/><stop style="stop-color:#fff6f7" offset=".726"/><stop style="stop-color:#ffebec" offset=".862"/><stop style="stop-color:#ffdadc" offset=".972"/><stop style="stop-color:#ffd4d7" offset="1"/></radialGradient><path fill="url(#XMLID_20_)" d="m474.81 43.602c0 7.279-14.246 13.18-31.82 13.18s-31.822-5.9-31.822-13.18 14.248-13.18 31.822-13.18 31.82 5.9 31.82 13.18z"/><radialGradient id="XMLID_21_" cx="1344.5" cy="-1405" r="50.602" gradientTransform="matrix(.4663 0 0 .2056 -182.67 318.17)" gradientUnits="userSpaceOnUse"><stop style="stop-color:#fff" offset=".006"/><stop style="stop-color:#fffdfd" offset=".535"/><stop style="stop-color:#fff6f7" offset=".726"/><stop style="stop-color:#ffebec" offset=".862"/><stop style="stop-color:#ffdadc" offset=".972"/><stop style="stop-color:#ffd4d7" offset="1"/></radialGradient><path fill="url(#XMLID_21_)" d="m467.91 29.264c0 5.746-10.566 10.405-23.6 10.405-13.03 0-23.596-4.659-23.596-10.405 0-5.747 10.565-10.406 23.596-10.406 13.03 0 23.6 4.659 23.6 10.406z"/><radialGradient id="XMLID_22_" cx="-1043.2" cy="782.57" r="26.154" gradientTransform="matrix(-1 -.00060996 .00060996 -1 -605.99 795.75)" gradientUnits="userSpaceOnUse"><stop style="stop-color:#fff" offset=".006"/><stop style="stop-color:red" offset=".551"/><stop style="stop-color:#fc0000" offset=".614"/><stop style="stop-color:#f20000" offset=".664"/><stop style="stop-color:#e10000" offset=".71"/><stop style="stop-color:#c90000" offset=".753"/><stop style="stop-color:#ab0000" offset=".794"/><stop style="stop-color:#860000" offset=".834"/><stop style="stop-color:#7c0000" offset=".843"/></radialGradient><path fill="url(#XMLID_22_)" d="m425.31 18.097c0.276-18.348 24.945-25.405 33.145-8.58 13.66 23.729-32.95 34.921-33.15 8.58"/></g><path fill="#00A7B3" d="m305.88 387.7l62.9-18.047 65.058 19.769c-0.01 0-55.49 10.08-127.96-1.72z"/></g></g></switch><metadata/></svg>